<svg width="50" height="50" fill="none" xmlns="http://www.w3.org/2000/svg"><path d="M21.421 16.651a3.732 3.732 0 107.464 0 3.732 3.732 0 00-7.464 0z" fill="#CACACA"/><path fill-rule="evenodd" clip-rule="evenodd" d="M25 50c13.807 0 25-11.193 25-25S38.807 0 25 0 0 11.193 0 25s11.193 25 25 25zm-8.875-33.35a9.028 9.028 0 0118.056 0 9.028 9.028 0 11-18.056 0zm18.11 13.673c-.114.092-2.28 1.804-5.895 2.54l5.456 5.407a2.455 2.455 0 11-3.469 3.475l-5.296-5.158-4.811 5.124c-.482.5-1.124.751-1.767.751a2.455 2.455 0 01-1.767-4.159l5.178-5.411c-3.716-.72-5.97-2.476-6.087-2.569a2.455 2.455 0 013.072-3.83c.022.018 2.38 1.79 6.181 1.793 3.801-.003 6.111-1.775 6.134-1.793a2.455 2.455 0 013.071 3.83z" fill="#CACACA"/></svg>